PathFileType	4	(X/Y/Z)	/Users/niels/Desktop/University/Third Semester/Perception and Action/Exam/Gymnastics Motion Tracking/Code for Gym Tracking/Analyzed Data/Webcam_Backflip/idid 15_1_trajectory_Sports2D/idid 15_1_trajectory_Sports2D_px_person00.trc
DataRate	CameraRate	NumFrames	NumMarkers	Units	OrigDataRate	OrigDataStartFrame	OrigNumFrames
29.702970297029704	29.702970297029704	11	22	m	29.702970297029704	88	101
Frame#	Time	Hip			RHip			RKnee			RAnkle			RBigToe			RSmallToe			RHeel			LHip			LKnee			LAnkle			LBigToe			LSmallToe			LHeel			Neck			Head			Nose			RShoulder			RElbow			RWrist			LShoulder			LElbow			LWrist		
		X1	Y1	Z1	X2	Y2	Z2	X3	Y3	Z3	X4	Y4	Z4	X5	Y5	Z5	X6	Y6	Z6	X7	Y7	Z7	X8	Y8	Z8	X9	Y9	Z9	X10	Y10	Z10	X11	Y11	Z11	X12	Y12	Z12	X13	Y13	Z13	X14	Y14	Z14	X15	Y15	Z15	X16	Y16	Z16	X17	Y17	Z17	X18	Y18	Z18	X19	Y19	Z19	X20	Y20	Z20	X21	Y21	Z21	X22	Y22	Z22
88	2.9626666666666663	0.9987329488530947	-0.4061163502047641	0.0	0.9839780754719264	-0.4199863557769389	0.0	0.9224450806410686	-0.5480402225305422	0.0	0.8334246850733193	-0.5788827023899613	0.0	0.8443881248422388	-0.6132792305434325	0.0	0.8300124206913803	-0.6140963094953935	0.0	0.8255798777133689	-0.5756057978886729	0.0	1.009332040374342	-0.39119984402891944	0.0	0.916657065645762	-0.3072852359021903	0.0	0.8945699681241454	-0.21265657342334082	0.0	0.8762972654166968	-0.1973092382806787	0.0	0.8812701504227549	-0.18431392415793732	0.0	0.8896650993155467	-0.20696225912115518	0.0	1.051488195449945	-0.606289530945456	0.0	1.082399568678027	-0.6839189622248052	0.0	1.0636511460215978	-0.6636938848928803	0.0	1.0233665998940031	-0.6018900940739709	0.0	1.0169046530620165	-0.6940857443178688	0.0	1.0322570781634097	-0.7720678445401093	0.0	1.082916850642482	-0.583172997808314	0.0	1.0576143013230965	-0.6691997109932923	0.0	1.046818131223407	-0.7542132957704656	0.0
89	2.9963333333333333	0.9940276005696702	-0.40866488119224004	0.0	0.9794097949984079	-0.4229680840615055	0.0	0.9310966746584853	-0.5631455386170183	0.0	0.8448522240598092	-0.6335298097799209	0.0	0.8620496383562694	-0.6820560435510317	0.0	0.8480905973723386	-0.6822685408450252	0.0	0.8340546765395528	-0.6351910833946104	0.0	1.00462209822933	-0.3957933949577184	0.0	0.9106593117083782	-0.3389330591464553	0.0	0.862454012165529	-0.26754946862802126	0.0	0.8444665512661244	-0.2613619946925918	0.0	0.8484789233684641	-0.2516093684319107	0.0	0.8517978453095646	-0.2641710601119822	0.0	1.0560057112135468	-0.6016944347596749	0.0	1.092954926096099	-0.6749626852817017	0.0	1.0670036846653255	-0.6598292261105513	0.0	1.0270683405765983	-0.5978172925328722	0.0	1.0181045632156005	-0.6920015653176771	0.0	1.0310466798550901	-0.7709205448957129	0.0	1.0860724622129507	-0.5773281374938127	0.0	1.0566386474169214	-0.6661229570073742	0.0	1.047041114420215	-0.7540826261092144	0.0
90	3.03	0.9875062128152834	-0.4135427990322283	0.0	0.9738160018410084	-0.42720505570293105	0.0	0.9379611874433759	-0.5751700571356652	0.0	0.8611121507815678	-0.6761973108733895	0.0	0.88538138543776	-0.7310769050202245	0.0	0.8715167225641378	-0.731582824160849	0.0	0.8483553365467212	-0.6823305658992675	0.0	0.9976457481595281	-0.4034732576382592	0.0	0.9082309240266301	-0.3846498342918406	0.0	0.8424449885723044	-0.3454148710966738	0.0	0.8304684594233613	-0.34907778938770306	0.0	0.8378698625876393	-0.34493886489039377	0.0	0.8281884073135379	-0.34494080333629146	0.0	1.0629107634788177	-0.5958244115678665	0.0	1.1087346410315426	-0.6636728791881342	0.0	1.073697990918392	-0.6543499796511484	0.0	1.0329045248455828	-0.5930883950741035	0.0	1.0204268739941231	-0.6884635705410694	0.0	1.030432287697635	-0.7692846264098738	0.0	1.0905273336868135	-0.571228620552205	0.0	1.0570547445886205	-0.6627335856094272	0.0	1.0484044603756262	-0.7543476268900823	0.0
91	3.0636666666666663	0.9790578711665645	-0.4209086238688222	0.0	0.9669263846468078	-0.43328416649099355	0.0	0.9420070258050474	-0.5858935136300071	0.0	0.8761683310718782	-0.7075869347711315	0.0	0.9076549184557147	-0.7619044680675551	0.0	0.8937546451318726	-0.7633442299998111	0.0	0.8621782181908375	-0.7171954213161589	0.0	0.9885049358898834	-0.4140150752790327	0.0	0.9097937850845328	-0.4397867546472365	0.0	0.8353852768070402	-0.43668949722775185	0.0	0.83293282518432	-0.451682279877087	0.0	0.8480680413902809	-0.45510250024437554	0.0	0.8189796379765555	-0.43922576882877484	0.0	1.0720008938183245	-0.5880306083017682	0.0	1.1285195790917033	-0.6489823040928568	0.0	1.0842558910083866	-0.6461085453535523	0.0	1.0410444944013846	-0.5873601059154531	0.0	1.0243494262523156	-0.6830729331453109	0.0	1.0310180585702169	-0.7669071219636772	0.0	1.0966195434825339	-0.564440865462279	0.0	1.0596540702939339	-0.6584399483999311	0.0	1.0512246743683034	-0.7538900859011693	0.0
92	3.0973333333333333	0.9692654608425375	-0.4301126616198085	0.0	0.9591625433662293	-0.44097334936335064	0.0	0.9432707225386266	-0.5960938460524455	0.0	0.8866168143746734	-0.7293819383664929	0.0	0.9250705334222261	-0.7787721544868845	0.0	0.9109938909332765	-0.7813094644040214	0.0	0.8714828803292702	-0.7415241058007439	0.0	0.9778178694919443	-0.42606138164024404	0.0	0.9122666592773975	-0.4949001942937759	0.0	0.8335990618662217	-0.5231228538572968	0.0	0.8400305890180002	-0.5503398044371162	0.0	0.8656163287989201	-0.562039273478533	0.0	0.8157763115826041	-0.5278813759746178	0.0	1.082471526927084	-0.5773367689061223	0.0	1.1501317800534914	-0.6293371203160577	0.0	1.0983313320315	-0.6337725050346941	0.0	1.0508669462299627	-0.579723704098477	0.0	1.0296839309609234	-0.6752438290895226	0.0	1.033098765627721	-0.7633063327307069	0.0	1.1040956259268428	-0.5562678243728728	0.0	1.0647248378687746	-0.6524817770117259	0.0	1.0558245215429634	-0.7511694804618815	0.0
93	3.131	0.9592715112226384	-0.4400351680651498	0.0	0.9513348322431122	-0.449247721896845	0.0	0.9426743929938409	-0.6056814299561957	0.0	0.8919454225471874	-0.7433802819170001	0.0	0.936509421833217	-0.7860911200927053	0.0	0.9220604261377023	-0.7895139631484174	0.0	0.8754225935312151	-0.7573706050929844	0.0	0.9666436491753098	-0.4378747344916835	0.0	0.9113834990990877	-0.5402114543406841	0.0	0.8260269996407072	-0.586771542707723	0.0	0.8365677110605433	-0.6254343761047123	0.0	0.8716169172582388	-0.6435123891902094	0.0	0.8071222304929646	-0.5918218497044124	0.0	1.0932161136145113	-0.5632432814855752	0.0	1.1710047692976264	-0.6038252555214524	0.0	1.1145634407275702	-0.6164751937288392	0.0	1.061057204747574	-0.5691463472305782	0.0	1.0356643032736728	-0.6645671320384131	0.0	1.0368711839737395	-0.7575270963113024	0.0	1.1119517274935578	-0.5463334860254273	0.0	1.0717925254255176	-0.6445235454176862	0.0	1.062340205498603	-0.7449156481237307	0.0
94	3.1646666666666663	0.950487610423972	-0.4494470784661744	0.0	0.9441402849967362	-0.4566591134097173	0.0	0.9412979649719371	-0.614094699941715	0.0	0.8934493943495428	-0.7514211217575947	0.0	0.9427006948892309	-0.787548354851595	0.0	0.9278755031720309	-0.7914923064286394	0.0	0.87553123182537	-0.766688324772496	0.0	0.9567037074488746	-0.4483478687034704	0.0	0.907670954048963	-0.5720574021495763	0.0	0.8105344040588867	-0.6228361017354662	0.0	0.8196936753670353	-0.6707380058291679	0.0	0.8581264622303048	-0.6900961091515609	0.0	0.7908216347944245	-0.6259074663678392	0.0	1.103109420624372	-0.5460245876718616	0.0	1.1887469513243412	-0.5727860482531545	0.0	1.1308817599259806	-0.5940405289665596	0.0	1.0702410187673097	-0.5547111621313671	0.0	1.0416589277336805	-0.6507693468849891	0.0	1.0426732123659743	-0.7480305842281649	0.0	1.1189699498658687	-0.5348252031081981	0.0	1.0797232897622828	-0.6346009162507308	0.0	1.070400886167558	-0.7346122907048024	0.0
95	3.1983333333333333	0.9442262099495325	-0.45736166318639787	0.0	0.9380264913079914	-0.4620270735694836	0.0	0.939849585523411	-0.6207129151804133	0.0	0.8928686209482126	-0.7552882025750666	0.0	0.9453025470128634	-0.7860379782749026	0.0	0.9303992151830964	-0.7901493037957236	0.0	0.8741042828520105	-0.7712631870642782	0.0	0.9502415294038054	-0.45736734843325344	0.0	0.9072575816991552	-0.5929264797658669	0.0	0.796951102330863	-0.6400830888003801	0.0	0.8029589412747364	-0.6943754428392486	0.0	0.8359780533820149	-0.7088921670509474	0.0	0.7767898593492606	-0.6400613285176424	0.0	1.1112638755532784	-0.5261270746858016	0.0	1.2018131548152724	-0.5375006212705811	0.0	1.1452850218270019	-0.5666965419711323	0.0	1.0775337544420514	-0.535806022450317	0.0	1.0475039356295714	-0.6331841694892839	0.0	1.0505886254377397	-0.7330050386592337	0.0	1.1245064266464238	-0.5221018261199193	0.0	1.0873256274175978	-0.6227239820990158	0.0	1.079109978185499	-0.7207035029815491	0.0
96	3.2319999999999998	0.941255667606928	-0.46320637136589693	0.0	0.933348168566612	-0.4649041644101711	0.0	0.9385792554086673	-0.6250046017239084	0.0	0.8915893270519734	-0.756375522097399	0.0	0.9458202544153524	-0.783660502472515	0.0	0.9312299668144226	-0.7876448539081913	0.0	0.8728941541389855	-0.7725474815953045	0.0	0.9489142017292008	-0.46522310320225346	0.0	0.915345231178287	-0.606196275891876	0.0	0.7961181297544898	-0.6500108377148972	0.0	0.8023276238687186	-0.7076120432891702	0.0	0.8235795845621561	-0.7139071840226451	0.0	0.7760211151507153	-0.6477064353829984	0.0	1.1173526263775384	-0.5037120830717159	0.0	1.2099556658089785	-0.49955608843778876	0.0	1.1566141842829787	-0.5349833097730111	0.0	1.082701628048802	-0.5124145631785423	0.0	1.0529745697252721	-0.610943116695482	0.0	1.0599437810902448	-0.7112543160746644	0.0	1.1286225631037448	-0.5082137988143993	0.0	1.0938836266782122	-0.608894409753014	0.0	1.087323721990646	-0.7044453064498928	0.0
97	3.2656666666666663	0.9415831308229257	-0.46670633873516926	0.0	0.9304275669427237	-0.46541391014271716	0.0	0.937344182482658	-0.6265620658726148	0.0	0.890434336359733	-0.755536412558851	0.0	0.9449360528391159	-0.7816882123321822	0.0	0.9308708670745995	-0.7853374460423534	0.0	0.8726481768268313	-0.7715324529123517	0.0	0.9528123849363336	-0.47182222173302957	0.0	0.9322741445673539	-0.6136076106201176	0.0	0.8114422705151076	-0.6601596157297653	0.0	0.8234380530442613	-0.7180769907759578	0.0	0.8317956912619351	-0.7168109638644635	0.0	0.7920345837727608	-0.6580077373548845	0.0	1.121715559999941	-0.47890173261171287	0.0	1.214083661588238	-0.4603740334405068	0.0	1.16474601085567	-0.4999563200314809	0.0	1.0860383455060514	-0.48524952346626216	0.0	1.0573056225284674	-0.5839718985974455	0.0	1.0694917603506158	-0.683134405965858	0.0	1.1315949735430804	-0.49286316110941036	0.0	1.0991845465374415	-0.5933178305909884	0.0	1.0940268099106605	-0.6874395097236468	0.0
98	3.2993333333333332	0.944629792797703	-0.46780344716097266	0.0	0.9294672105121075	-0.4639348866475163	0.0	0.935769245149339	-0.6252992154580859	0.0	0.8897103099047565	-0.7532354385576128	0.0	0.9427469962504257	-0.780557845778147	0.0	0.9291780699356679	-0.7838253653400928	0.0	0.8733447082051847	-0.7688260636287382	0.0	0.9606098256755274	-0.4765935113286123	0.0	0.955624170331815	-0.6162651752690796	0.0	0.8403093103571402	-0.674459961585683	0.0	0.8614670025229827	-0.7303917177671394	0.0	0.8605632718767579	-0.7243784551756159	0.0	0.8223035682543977	-0.6758069525518827	0.0	1.125068693176678	-0.45210011171031805	0.0	1.215654634915778	-0.4209805023261831	0.0	1.1702807580124588	-0.4630457052059961	0.0	1.0881307881521987	-0.4555929559599038	0.0	1.0596831059741563	-0.5533640755681478	0.0	1.0781505791073969	-0.6503397579627135	0.0	1.1335690199055026	-0.47559091536393344	0.0	1.1033272559856153	-0.5762731786583313	0.0	1.0987448104852908	-0.6708742630813698	0.0
